name Walk2.mot
datacolumns 19
datarows 27
range 3.93500000 4.06500000
endheader

                time	   L_ground_force_vx	   L_ground_force_vy	   L_ground_force_vz	   L_ground_force_px	   L_ground_force_py	   L_ground_force_pz	   R_ground_force_vx	   R_ground_force_vy	   R_ground_force_vz	   R_ground_force_px	   R_ground_force_py	   R_ground_force_pz	   L_ground_torque_x	   L_ground_torque_y	   L_ground_torque_z	   R_ground_torque_x	   R_ground_torque_y	   R_ground_torque_z	
          3.93500000	          0.08098631	          0.26582589	         -0.00284320	         -0.00031338	          0.00000000	         -0.00000650	        -16.21184993	        703.05368698	        -43.52327154	          0.20498042	          0.00000000	          0.12476799	          0.00000000	          0.00050406	          0.00000000	          0.00000000	          8.97455693	          0.00000000	
          3.94000000	          0.07260687	          0.22397281	         -0.00365351	         -0.00036668	          0.00000000	         -0.00000575	        -14.93020659	        699.49617595	        -43.40869194	          0.20618400	          0.00000000	          0.12494988	          0.00000000	          0.00046337	          0.00000000	          0.00000000	          8.71267316	          0.00000000	
          3.94500000	          0.06149097	          0.17941970	         -0.00388419	         -0.00037185	          0.00000000	         -0.00000481	        -13.66518333	        695.86051395	        -43.27492505	          0.20738448	          0.00000000	          0.12511936	          0.00000000	          0.00040063	          0.00000000	          0.00000000	          8.45192849	          0.00000000	
          3.95000000	          0.04949937	          0.13665872	         -0.00372493	         -0.00034577	          0.00000000	         -0.00000383	        -12.42228669	        692.16481673	        -43.12320835	          0.20858111	          0.00000000	          0.12527648	          0.00000000	          0.00032871	          0.00000000	          0.00000000	          8.19389615	          0.00000000	
          3.95500000	          0.03789459	          0.09842889	         -0.00332821	         -0.00030169	          0.00000000	         -0.00000290	        -11.20382821	        688.42886798	        -42.95019987	          0.20977011	          0.00000000	          0.12541986	          0.00000000	          0.00025659	          0.00000000	          0.00000000	          7.93970464	          0.00000000	
          3.96000000	          0.02745566	          0.06612830	         -0.00281058	         -0.00024957	          0.00000000	         -0.00000208	        -10.00907731	        684.67397919	        -42.75099461	          0.21094741	          0.00000000	          0.12554761	          0.00000000	          0.00019005	          0.00000000	          0.00000000	          7.68996980	          0.00000000	
          3.96500000	          0.01858997	          0.04018461	         -0.00225634	         -0.00019640	          0.00000000	         -0.00000138	         -8.83457593	        680.92492280	        -42.52026439	          0.21210896	          0.00000000	          0.12565909	          0.00000000	          0.00013235	          0.00000000	          0.00000000	          7.44433255	          0.00000000	
          3.97000000	          0.01143433	          0.02036930	         -0.00172248	         -0.00014677	          0.00000000	         -0.00000083	         -7.67502577	        677.21165302	        -42.25308324	          0.21325139	          0.00000000	          0.12575634	          0.00000000	          0.00008488	          0.00000000	          0.00000000	          7.20137642	          0.00000000	
          3.97500000	          0.00594124	          0.00605117	         -0.00124389	         -0.00010334	          0.00000000	         -0.00000041	         -6.52433081	        673.56859888	        -41.94723249	          0.21437415	          0.00000000	          0.12584442	          0.00000000	          0.00004772	          0.00000000	          0.00000000	          6.95905617	          0.00000000	
          3.98000000	          0.00194875	         -0.00360935	         -0.00083861	         -0.00006732	          0.00000000	         -0.00000010	         -5.37670711	        670.03270864	        -41.60450746	          0.21548072	          0.00000000	          0.12593071	          0.00000000	          0.00002012	          0.00000000	          0.00000000	          6.71516659	          0.00000000	
          3.98500000	         -0.00076568	         -0.00951900	         -0.00051238	         -0.00003889	          0.00000000	          0.00000010	         -4.22793096	        666.63793555	        -41.23065631	          0.21657815	          0.00000000	          0.12602355	          0.00000000	          0.00000083	          0.00000000	          0.00000000	          6.46775330	          0.00000000	
          3.99000000	         -0.00244584	         -0.01255590	         -0.00026266	         -0.00001759	          0.00000000	          0.00000022	         -3.07638037	        663.41152240	        -40.83571178	          0.21767504	          0.00000000	          0.12613206	          0.00000000	         -0.00001161	          0.00000000	          0.00000000	          6.21535632	          0.00000000	
          3.99500000	         -0.00332985	         -0.01351039	         -0.00008174	         -0.00000253	          0.00000000	          0.00000028	         -1.92317180	        660.37128022	        -40.43495383	          0.21878124	          0.00000000	          0.12626642	          0.00000000	         -0.00001866	          0.00000000	          0.00000000	          5.95756555	          0.00000000	
          4.00000000	         -0.00363340	         -0.01305397	          0.00004074	          0.00000732	          0.00000000	          0.00000030	         -0.77208030	        657.52593387	        -40.04911474	          0.21990862	          0.00000000	          0.12643635	          0.00000000	         -0.00002171	          0.00000000	          0.00000000	          5.69497335	          0.00000000	
          4.00500000	         -0.00354071	         -0.01172887	          0.00011607	          0.00001306	          0.00000000	          0.00000028	          0.37110388	        654.87615236	        -39.70256978	          0.22107048	          0.00000000	          0.12664864	          0.00000000	         -0.00002195	          0.00000000	          0.00000000	          5.42900319	          0.00000000	
          4.01000000	         -0.00320123	         -0.00995150	          0.00015519	          0.00001571	          0.00000000	          0.00000025	          1.49962582	        652.41920900	        -39.42143146	          0.22228133	          0.00000000	          0.12690741	          0.00000000	         -0.00002037	          0.00000000	          0.00000000	          5.16227297	          0.00000000	
          4.01500000	         -0.00273036	         -0.00802466	          0.00016801	          0.00001617	          0.00000000	          0.00000021	          2.60608878	        650.15426264	        -39.22962631	          0.22355497	          0.00000000	          0.12721480	          0.00000000	         -0.00001774	          0.00000000	          0.00000000	          4.89812595	          0.00000000	
          4.02000000	         -0.00221246	         -0.00615436	          0.00016294	          0.00001518	          0.00000000	          0.00000017	          3.68329581	        648.08407411	        -39.14491337	          0.22490175	          0.00000000	          0.12756993	          0.00000000	         -0.00001466	          0.00000000	          0.00000000	          4.64000893	          0.00000000	
          4.02500000	         -0.00170536	         -0.00446824	          0.00014680	          0.00001335	          0.00000000	          0.00000013	          4.72518170	        646.21313314	        -39.17598757	          0.22632646	          0.00000000	          0.12796886	          0.00000000	         -0.00001152	          0.00000000	          0.00000000	          4.39104139	          0.00000000	
          4.03000000	         -0.00124529	         -0.00303358	          0.00012484	          0.00001111	          0.00000000	          0.00000009	          5.72788460	        644.55241824	        -39.32050141	          0.22782872	          0.00000000	          0.12840557	          0.00000000	         -0.00000859	          0.00000000	          0.00000000	          4.15360445	          0.00000000	
          4.03500000	         -0.00085177	         -0.00187364	          0.00010089	          0.00000881	          0.00000000	          0.00000006	          6.69122627	        643.12435122	        -39.56577443	          0.22940287	          0.00000000	          0.12887271	          0.00000000	         -0.00000604	          0.00000000	          0.00000000	          3.92902239	          0.00000000	
          4.04000000	         -0.00053205	         -0.00098161	          0.00007755	          0.00000663	          0.00000000	          0.00000004	          7.61901502	        641.96436725	        -39.89150426	          0.23103988	          0.00000000	          0.12936264	          0.00000000	         -0.00000392	          0.00000000	          0.00000000	          3.71708024	          0.00000000	
          4.04500000	         -0.00028494	         -0.00033194	          0.00005645	          0.00000471	          0.00000000	          0.00000002	          8.51783585	        641.11971324	        -40.27412822	          0.23272970	          0.00000000	          0.12986828	          0.00000000	         -0.00000226	          0.00000000	          0.00000000	          3.51658768	          0.00000000	
          4.05000000	         -0.00010394	          0.00011094	          0.00003845	          0.00000310	          0.00000000	          0.00000001	          9.39589760	        640.64470614	        -40.69122653	          0.23446045	          0.00000000	          0.13038306	          0.00000000	         -0.00000101	          0.00000000	          0.00000000	          3.32615210	          0.00000000	
          4.05500000	          0.00002035	          0.00038617	          0.00002387	          0.00000183	          0.00000000	         -0.00000000	         10.26154086	        640.59452802	        -41.12413366	          0.23621950	          0.00000000	          0.13090139	          0.00000000	         -0.00000013	          0.00000000	          0.00000000	          3.14438791	          0.00000000	
          4.06000000	          0.00009845	          0.00053213	          0.00001263	          0.00000087	          0.00000000	         -0.00000001	         11.12284699	        641.01684137	        -41.55922150	          0.23799494	          0.00000000	          0.13141844	          0.00000000	          0.00000045	          0.00000000	          0.00000000	          2.97035282	          0.00000000	
          4.06500000	          0.00014075	          0.00058365	          0.00000442	          0.00000018	          0.00000000	         -0.00000001	         11.98709974	        641.94925688	        -41.98772308	          0.23977541	          0.00000000	          0.13193017	          0.00000000	          0.00000078	          0.00000000	          0.00000000	          2.80323189	          0.00000000	
